<svg xmlns="http://www.w3.org/2000/svg" xmlns:xlink="http://www.w3.org/1999/xlink" viewBox="0 0 250 333"><defs><style>.cls-1{fill:#fff;stroke:url(#Neues_Verlaufsfeld_2);}.cls-1,.cls-2,.cls-3,.cls-4,.cls-5{stroke-miterlimit:10;stroke-width:4px;}.cls-2,.cls-3,.cls-4,.cls-5{fill:none;}.cls-2{stroke:url(#Unbenannter_Verlauf_27);}.cls-3{stroke:url(#Unbenannter_Verlauf_27-2);}.cls-4{stroke:url(#Unbenannter_Verlauf_27-3);}.cls-5{stroke:url(#Unbenannter_Verlauf_27-4);}</style><linearGradient id="Neues_Verlaufsfeld_2" x1="225.59" y1="340.73" x2="24.41" y2="-7.73" gradientUnits="userSpaceOnUse"><stop offset="0"/><stop offset="0.09" stop-color="#040000"/><stop offset="0.17" stop-color="#100" stop-opacity="0.99"/><stop offset="0.26" stop-color="#270000" stop-opacity="0.98"/><stop offset="0.34" stop-color="#460000" stop-opacity="0.97"/><stop offset="0.42" stop-color="#6e0000" stop-opacity="0.95"/><stop offset="0.51" stop-color="#9e0000" stop-opacity="0.93"/><stop offset="0.59" stop-color="#d70000" stop-opacity="0.91"/><stop offset="0.61" stop-color="#e60000" stop-opacity="0.9"/><stop offset="0.63" stop-color="#c90002" stop-opacity="0.91"/><stop offset="0.67" stop-color="#990005" stop-opacity="0.94"/><stop offset="0.72" stop-color="#6f0007" stop-opacity="0.96"/><stop offset="0.77" stop-color="#4d0009" stop-opacity="0.97"/><stop offset="0.82" stop-color="#32000b" stop-opacity="0.98"/><stop offset="0.87" stop-color="#20000c" stop-opacity="0.99"/><stop offset="0.93" stop-color="#15000d"/><stop offset="1" stop-color="#11000d"/></linearGradient><linearGradient id="Unbenannter_Verlauf_27" x1="81.88" y1="166.5" x2="168" y2="166.5" gradientUnits="userSpaceOnUse"><stop offset="0"/><stop offset="0.07" stop-color="#040000"/><stop offset="0.15" stop-color="#100" stop-opacity="0.99"/><stop offset="0.22" stop-color="#270000" stop-opacity="0.98"/><stop offset="0.29" stop-color="#460000" stop-opacity="0.97"/><stop offset="0.36" stop-color="#6e0000" stop-opacity="0.95"/><stop offset="0.43" stop-color="#9e0000" stop-opacity="0.93"/><stop offset="0.5" stop-color="#d70000" stop-opacity="0.91"/><stop offset="0.51" stop-color="#e60000" stop-opacity="0.9"/><stop offset="0.54" stop-color="#c90002" stop-opacity="0.91"/><stop offset="0.6" stop-color="#990005" stop-opacity="0.94"/><stop offset="0.65" stop-color="#6f0007" stop-opacity="0.96"/><stop offset="0.71" stop-color="#4d0009" stop-opacity="0.97"/><stop offset="0.77" stop-color="#32000b" stop-opacity="0.98"/><stop offset="0.84" stop-color="#20000c" stop-opacity="0.99"/><stop offset="0.91" stop-color="#15000d"/><stop offset="1" stop-color="#11000d"/></linearGradient><linearGradient id="Unbenannter_Verlauf_27-2" x1="170.88" y1="191.5" x2="257" y2="191.5" gradientTransform="translate(-66.56 380.44) rotate(-90)" xlink:href="#Unbenannter_Verlauf_27"/><linearGradient id="Unbenannter_Verlauf_27-3" x1="115.38" y1="185.5" x2="201.49" y2="185.5" gradientTransform="translate(-118.26 147.37) rotate(-45)" xlink:href="#Unbenannter_Verlauf_27"/><linearGradient id="Unbenannter_Verlauf_27-4" x1="57.39" y1="251.96" x2="143.51" y2="251.96" gradientTransform="translate(232.08 -82.7) rotate(45)" xlink:href="#Unbenannter_Verlauf_27"/></defs><title>c_0</title><g id="_0" data-name="0"><rect class="cls-1" x="3" y="2.5" width="244" height="328" rx="10.5" ry="10.5"/><path id="_Polygon_" data-name="&lt;Polygon&gt;" class="cls-2" d="M154,182.73l-24.08,7.37a17,17,0,0,1-9.93,0l-24.09-7.37a17,17,0,0,1-12-16.23h0a17,17,0,0,1,12-16.23L120,142.9a17,17,0,0,1,9.93,0L154,150.27a17,17,0,0,1,12,16.23h0A17,17,0,0,1,154,182.73Z"/><path id="_Polygon_2" data-name="&lt;Polygon&gt;" class="cls-3" d="M141.17,137.45l7.37,24.09a16.94,16.94,0,0,1,0,9.92l-7.37,24.09a17,17,0,0,1-16.23,12h0a17,17,0,0,1-16.23-12l-7.37-24.09a17.1,17.1,0,0,1,0-9.92l7.37-24.09a17,17,0,0,1,16.23-12h0A17,17,0,0,1,141.17,137.45Z"/><path id="_Polygon_3" data-name="&lt;Polygon&gt;" class="cls-4" d="M157,157.44l-11.82,22.24a17.08,17.08,0,0,1-7,7l-22.24,11.82a17,17,0,0,1-20-3h0a17,17,0,0,1-3-20l11.83-22.24a17,17,0,0,1,7-7L134,134.48a17,17,0,0,1,20,3h0A17,17,0,0,1,157,157.44Z"/><path id="_Polygon_4" data-name="&lt;Polygon&gt;" class="cls-5" d="M134,198.52,111.77,186.7a17,17,0,0,1-7-7L92.92,157.44a17,17,0,0,1,3-20h0a17,17,0,0,1,20-3l22.24,11.82a17.08,17.08,0,0,1,7,7L157,175.56a17,17,0,0,1-3,20h0A17,17,0,0,1,134,198.52Z"/></g></svg>