<svg xmlns="http://www.w3.org/2000/svg" xmlns:xlink="http://www.w3.org/1999/xlink" viewBox="0 0 250 333"><defs><style>.cls-1{fill:#fff;stroke:url(#Neues_Verlaufsfeld_2);}.cls-1,.cls-2{stroke-miterlimit:10;stroke-width:4px;}.cls-2{fill:none;stroke:url(#Unbenannter_Verlauf_27);}.cls-3,.cls-5{font-size:100px;font-family:Impact, Impact;}.cls-3{fill:red;}.cls-4{fill:url(#Unbenannter_Verlauf_216);}.cls-6{fill:url(#Unbenannter_Verlauf_216-3);}</style><linearGradient id="Neues_Verlaufsfeld_2" x1="225.59" y1="340.73" x2="24.41" y2="-7.73" gradientUnits="userSpaceOnUse"><stop offset="0"/><stop offset="0.09" stop-color="#040000"/><stop offset="0.17" stop-color="#100" stop-opacity="0.99"/><stop offset="0.26" stop-color="#270000" stop-opacity="0.98"/><stop offset="0.34" stop-color="#460000" stop-opacity="0.97"/><stop offset="0.42" stop-color="#6e0000" stop-opacity="0.95"/><stop offset="0.51" stop-color="#9e0000" stop-opacity="0.93"/><stop offset="0.59" stop-color="#d70000" stop-opacity="0.91"/><stop offset="0.61" stop-color="#e60000" stop-opacity="0.9"/><stop offset="0.63" stop-color="#c90002" stop-opacity="0.91"/><stop offset="0.67" stop-color="#990005" stop-opacity="0.94"/><stop offset="0.72" stop-color="#6f0007" stop-opacity="0.96"/><stop offset="0.77" stop-color="#4d0009" stop-opacity="0.97"/><stop offset="0.82" stop-color="#32000b" stop-opacity="0.98"/><stop offset="0.87" stop-color="#20000c" stop-opacity="0.99"/><stop offset="0.93" stop-color="#15000d"/><stop offset="1" stop-color="#11000d"/></linearGradient><linearGradient id="Unbenannter_Verlauf_27" x1="81.88" y1="166.5" x2="168" y2="166.5" gradientUnits="userSpaceOnUse"><stop offset="0"/><stop offset="0.07" stop-color="#040000"/><stop offset="0.15" stop-color="#100" stop-opacity="0.99"/><stop offset="0.22" stop-color="#270000" stop-opacity="0.98"/><stop offset="0.29" stop-color="#460000" stop-opacity="0.97"/><stop offset="0.36" stop-color="#6e0000" stop-opacity="0.95"/><stop offset="0.43" stop-color="#9e0000" stop-opacity="0.93"/><stop offset="0.5" stop-color="#d70000" stop-opacity="0.91"/><stop offset="0.51" stop-color="#e60000" stop-opacity="0.9"/><stop offset="0.54" stop-color="#c90002" stop-opacity="0.91"/><stop offset="0.6" stop-color="#990005" stop-opacity="0.94"/><stop offset="0.65" stop-color="#6f0007" stop-opacity="0.96"/><stop offset="0.71" stop-color="#4d0009" stop-opacity="0.97"/><stop offset="0.77" stop-color="#32000b" stop-opacity="0.98"/><stop offset="0.84" stop-color="#20000c" stop-opacity="0.99"/><stop offset="0.91" stop-color="#15000d"/><stop offset="1" stop-color="#11000d"/></linearGradient><linearGradient id="Unbenannter_Verlauf_216" x1="27.74" y1="110.06" x2="141.25" y2="34.74" gradientUnits="userSpaceOnUse"><stop offset="0"/><stop offset="0.5" stop-color="#ff1000" stop-opacity="0.4"/><stop offset="1"/></linearGradient><linearGradient id="Unbenannter_Verlauf_216-3" x1="-1994.26" y1="333.06" x2="-1880.75" y2="257.74" gradientTransform="translate(-1771 556.67) rotate(180)" xlink:href="#Unbenannter_Verlauf_216"/></defs><title>c_10</title><g id="_10" data-name="10"><rect class="cls-1" x="3" y="2.5" width="244" height="328" rx="10.5" ry="10.5"/><path id="_Polygon_" data-name="&lt;Polygon&gt;" class="cls-2" d="M154,182.73l-24.08,7.37a17,17,0,0,1-9.93,0l-24.09-7.37a17,17,0,0,1-12-16.23h0a17,17,0,0,1,12-16.23L120,142.9a17,17,0,0,1,9.93,0L154,150.27a17,17,0,0,1,12,16.23h0A17,17,0,0,1,154,182.73Z"/><text class="cls-3" transform="translate(17 96.6)">10</text><text class="cls-3" transform="translate(17 96.6)">10</text><path class="cls-4" d="M51.94,16.55V95.6H32.21V53.22q0-9.18-.44-11a4.12,4.12,0,0,0-2.42-2.81c-1.32-.63-4.25-.95-8.81-.95H18.59V29.2q14.3-3.07,21.72-12.65Z"/><path class="cls-4" d="M106.13,43.3V69.67q0,9-1,13.09a18,18,0,0,1-4,7.66,17.49,17.49,0,0,1-7.43,5.13A28.54,28.54,0,0,1,84,97.11,36.18,36.18,0,0,1,72.2,95.48a16,16,0,0,1-7.47-5.11,21.7,21.7,0,0,1-4-7.3Q59.6,79.25,59.6,70.89V43.3q0-10.89,1.88-16.3A16.06,16.06,0,0,1,69,18.3,26.43,26.43,0,0,1,82.5,15,28.44,28.44,0,0,1,94.12,17.3a19.45,19.45,0,0,1,7.67,5.54,18.34,18.34,0,0,1,3.44,7.38A67.49,67.49,0,0,1,106.13,43.3ZM86.41,36.66c0-4.2-.21-6.82-.61-7.88s-1.36-1.59-2.86-1.59A2.81,2.81,0,0,0,80,28.88c-.48,1.12-.71,3.71-.71,7.78V75.24c0,4.59.22,7.35.66,8.3S81.38,85,82.84,85a2.77,2.77,0,0,0,2.88-1.66q.69-1.65.69-7.47Z"/><text class="cls-5" transform="translate(18 95.6)">10</text><text class="cls-3" transform="translate(234 237.07) rotate(180)">10</text><text class="cls-3" transform="translate(234 237.07) rotate(180)">10</text><path class="cls-6" d="M199.06,317.12V238.07h19.73v42.38q0,9.18.44,11a4.11,4.11,0,0,0,2.42,2.8c1.32.64,4.25,1,8.81,1h1.95v9.21q-14.29,3.07-21.72,12.66Z"/><path class="cls-6" d="M144.87,290.36V264q0-9,1-13.09a18.14,18.14,0,0,1,4-7.67,17.56,17.56,0,0,1,7.43-5.12,28.54,28.54,0,0,1,9.71-1.57,36.15,36.15,0,0,1,11.77,1.64,16.08,16.08,0,0,1,7.47,5.1,21.8,21.8,0,0,1,4,7.3q1.17,3.84,1.17,12.19v27.58q0,10.89-1.88,16.31a16,16,0,0,1-7.47,8.69,26.43,26.43,0,0,1-13.55,3.27,28.28,28.28,0,0,1-11.62-2.27,19.35,19.35,0,0,1-7.67-5.54,18.3,18.3,0,0,1-3.44-7.37A67.68,67.68,0,0,1,144.87,290.36ZM164.59,297c0,4.2.21,6.83.61,7.89s1.36,1.59,2.86,1.59a2.81,2.81,0,0,0,2.9-1.69c.48-1.12.71-3.72.71-7.79V258.43q0-6.88-.66-8.3c-.44-.95-1.39-1.42-2.85-1.42a2.78,2.78,0,0,0-2.88,1.66q-.69,1.66-.69,7.47Z"/><text class="cls-5" transform="translate(233 238.07) rotate(180)">10</text></g></svg>