<svg xmlns="http://www.w3.org/2000/svg" xmlns:xlink="http://www.w3.org/1999/xlink" viewBox="0 0 250 333"><defs><style>.cls-1{fill:#fff;stroke:url(#Neues_Verlaufsfeld_2);}.cls-1,.cls-2{stroke-miterlimit:10;stroke-width:4px;}.cls-2{fill:none;stroke:url(#Unbenannter_Verlauf_27);}.cls-3,.cls-5{font-size:100px;font-family:Impact, Impact;}.cls-3{fill:red;}.cls-4{fill:url(#Unbenannter_Verlauf_216);}.cls-6{fill:url(#Unbenannter_Verlauf_216-2);}</style><linearGradient id="Neues_Verlaufsfeld_2" x1="225.59" y1="340.73" x2="24.41" y2="-7.73" gradientUnits="userSpaceOnUse"><stop offset="0"/><stop offset="0.09" stop-color="#040000"/><stop offset="0.17" stop-color="#100" stop-opacity="0.99"/><stop offset="0.26" stop-color="#270000" stop-opacity="0.98"/><stop offset="0.34" stop-color="#460000" stop-opacity="0.97"/><stop offset="0.42" stop-color="#6e0000" stop-opacity="0.95"/><stop offset="0.51" stop-color="#9e0000" stop-opacity="0.93"/><stop offset="0.59" stop-color="#d70000" stop-opacity="0.91"/><stop offset="0.61" stop-color="#e60000" stop-opacity="0.9"/><stop offset="0.63" stop-color="#c90002" stop-opacity="0.91"/><stop offset="0.67" stop-color="#990005" stop-opacity="0.94"/><stop offset="0.72" stop-color="#6f0007" stop-opacity="0.96"/><stop offset="0.77" stop-color="#4d0009" stop-opacity="0.97"/><stop offset="0.82" stop-color="#32000b" stop-opacity="0.98"/><stop offset="0.87" stop-color="#20000c" stop-opacity="0.99"/><stop offset="0.93" stop-color="#15000d"/><stop offset="1" stop-color="#11000d"/></linearGradient><linearGradient id="Unbenannter_Verlauf_27" x1="81.88" y1="166.5" x2="168" y2="166.5" gradientUnits="userSpaceOnUse"><stop offset="0"/><stop offset="0.07" stop-color="#040000"/><stop offset="0.15" stop-color="#100" stop-opacity="0.99"/><stop offset="0.22" stop-color="#270000" stop-opacity="0.98"/><stop offset="0.29" stop-color="#460000" stop-opacity="0.97"/><stop offset="0.36" stop-color="#6e0000" stop-opacity="0.95"/><stop offset="0.43" stop-color="#9e0000" stop-opacity="0.93"/><stop offset="0.5" stop-color="#d70000" stop-opacity="0.91"/><stop offset="0.51" stop-color="#e60000" stop-opacity="0.9"/><stop offset="0.54" stop-color="#c90002" stop-opacity="0.91"/><stop offset="0.6" stop-color="#990005" stop-opacity="0.94"/><stop offset="0.65" stop-color="#6f0007" stop-opacity="0.96"/><stop offset="0.71" stop-color="#4d0009" stop-opacity="0.97"/><stop offset="0.77" stop-color="#32000b" stop-opacity="0.98"/><stop offset="0.84" stop-color="#20000c" stop-opacity="0.99"/><stop offset="0.91" stop-color="#15000d"/><stop offset="1" stop-color="#11000d"/></linearGradient><linearGradient id="Unbenannter_Verlauf_216" x1="19.08" y1="103.5" x2="115.18" y2="39.75" gradientUnits="userSpaceOnUse"><stop offset="0"/><stop offset="0.5" stop-color="#ff1000" stop-opacity="0.4"/><stop offset="1"/></linearGradient><linearGradient id="Unbenannter_Verlauf_216-2" x1="-922.91" y1="326.51" x2="-826.82" y2="262.75" gradientTransform="translate(-691 556.67) rotate(180)" xlink:href="#Unbenannter_Verlauf_216"/></defs><title>c_12</title><g id="_12" data-name="12"><rect class="cls-1" x="3" y="2.5" width="244" height="328" rx="10.5" ry="10.5"/><path id="_Polygon_" data-name="&lt;Polygon&gt;" class="cls-2" d="M154,182.73l-24.08,7.37a17,17,0,0,1-9.93,0l-24.09-7.37a17,17,0,0,1-12-16.23h0a17,17,0,0,1,12-16.23L120,142.9a17,17,0,0,1,9.93,0L154,150.27a17,17,0,0,1,12,16.23h0A17,17,0,0,1,154,182.73Z"/><text class="cls-3" transform="translate(17 96.6)">Q</text><text class="cls-3" transform="translate(17 96.6)">Q</text><path class="cls-4" d="M69.12,95.6v9.57H53.6q-5.62,0-7.91-.87a5.28,5.28,0,0,1-3.11-2.57c-.53-1.13-.8-3.18-.8-6.13a21.73,21.73,0,0,1-12-3.66,16.18,16.18,0,0,1-6.64-8.82q-1.62-5.34-1.61-16V42.67a59.28,59.28,0,0,1,.95-12.28,19.48,19.48,0,0,1,3.93-8,18.49,18.49,0,0,1,7.66-5.64,27.43,27.43,0,0,1,10.4-1.9,30.65,30.65,0,0,1,12.29,2.34,19.24,19.24,0,0,1,8,5.95,19.16,19.16,0,0,1,3.47,7.5,61,61,0,0,1,.8,11.54V67.9q0,10.55-1,14.3a10.93,10.93,0,0,1-3.93,6,20.7,20.7,0,0,1-7.74,3.39c.1,1.77.46,2.88,1.1,3.34s2.14.69,4.51.69ZM48.52,36.86c0-3.68-.21-6-.61-7.06a2.45,2.45,0,0,0-2.52-1.54,2.81,2.81,0,0,0-2.46,1.25q-.85,1.24-.86,7.35V73.77q0,6.89.56,8.5a2.46,2.46,0,0,0,2.62,1.61A2.52,2.52,0,0,0,47.93,82c.39-1.23.59-4.18.59-8.83Z"/><text class="cls-5" transform="translate(18 95.6)">Q</text><text class="cls-3" transform="translate(234 237.07) rotate(180)">Q</text><text class="cls-3" transform="translate(234 237.07) rotate(180)">Q</text><path class="cls-6" d="M181.88,238.07V228.5H197.4q5.63,0,7.91.86a5.31,5.31,0,0,1,3.11,2.57q.79,1.71.8,6.14a21.73,21.73,0,0,1,12,3.66,16.19,16.19,0,0,1,6.64,8.81q1.62,5.36,1.61,16V291a59.34,59.34,0,0,1-.95,12.28,19.54,19.54,0,0,1-3.93,8,18.49,18.49,0,0,1-7.66,5.64,27.43,27.43,0,0,1-10.4,1.9,30.65,30.65,0,0,1-12.29-2.34A18.48,18.48,0,0,1,182.73,303a61.16,61.16,0,0,1-.8-11.54V265.77q0-10.54,1-14.3a10.9,10.9,0,0,1,3.93-6,20.7,20.7,0,0,1,7.74-3.39c-.1-1.77-.46-2.89-1.1-3.35s-2.14-.68-4.51-.68Zm20.6,58.74c0,3.68.21,6,.61,7.05a2.43,2.43,0,0,0,2.52,1.54,2.8,2.8,0,0,0,2.46-1.24q.85-1.25.86-7.35V259.89q0-6.88-.56-8.49a2.45,2.45,0,0,0-2.62-1.61,2.51,2.51,0,0,0-2.68,1.85c-.39,1.24-.59,4.18-.59,8.84Z"/><text class="cls-5" transform="translate(233 238.07) rotate(180)">Q</text></g></svg>