<svg xmlns="http://www.w3.org/2000/svg" xmlns:xlink="http://www.w3.org/1999/xlink" viewBox="0 0 250 333"><defs><style>.cls-1{fill:#fff;stroke:url(#Neues_Verlaufsfeld_2);}.cls-1,.cls-2,.cls-3{stroke-miterlimit:10;stroke-width:4px;}.cls-2,.cls-3{fill:none;}.cls-2{stroke:url(#Unbenannter_Verlauf_27);}.cls-3{stroke:url(#Unbenannter_Verlauf_27-2);}.cls-4,.cls-6{font-size:100px;font-family:Impact, Impact;}.cls-4{fill:red;}.cls-5{fill:url(#Unbenannter_Verlauf_216);}.cls-7{fill:url(#Unbenannter_Verlauf_216-2);}</style><linearGradient id="Neues_Verlaufsfeld_2" x1="225.59" y1="340.73" x2="24.41" y2="-7.73" gradientUnits="userSpaceOnUse"><stop offset="0"/><stop offset="0.09" stop-color="#040000"/><stop offset="0.17" stop-color="#100" stop-opacity="0.99"/><stop offset="0.26" stop-color="#270000" stop-opacity="0.98"/><stop offset="0.34" stop-color="#460000" stop-opacity="0.97"/><stop offset="0.42" stop-color="#6e0000" stop-opacity="0.95"/><stop offset="0.51" stop-color="#9e0000" stop-opacity="0.93"/><stop offset="0.59" stop-color="#d70000" stop-opacity="0.91"/><stop offset="0.61" stop-color="#e60000" stop-opacity="0.9"/><stop offset="0.63" stop-color="#c90002" stop-opacity="0.91"/><stop offset="0.67" stop-color="#990005" stop-opacity="0.94"/><stop offset="0.72" stop-color="#6f0007" stop-opacity="0.96"/><stop offset="0.77" stop-color="#4d0009" stop-opacity="0.97"/><stop offset="0.82" stop-color="#32000b" stop-opacity="0.98"/><stop offset="0.87" stop-color="#20000c" stop-opacity="0.99"/><stop offset="0.93" stop-color="#15000d"/><stop offset="1" stop-color="#11000d"/></linearGradient><linearGradient id="Unbenannter_Verlauf_27" x1="81.88" y1="166.5" x2="168" y2="166.5" gradientUnits="userSpaceOnUse"><stop offset="0"/><stop offset="0.07" stop-color="#040000"/><stop offset="0.15" stop-color="#100" stop-opacity="0.99"/><stop offset="0.22" stop-color="#270000" stop-opacity="0.98"/><stop offset="0.29" stop-color="#460000" stop-opacity="0.97"/><stop offset="0.36" stop-color="#6e0000" stop-opacity="0.95"/><stop offset="0.43" stop-color="#9e0000" stop-opacity="0.93"/><stop offset="0.5" stop-color="#d70000" stop-opacity="0.91"/><stop offset="0.51" stop-color="#e60000" stop-opacity="0.9"/><stop offset="0.54" stop-color="#c90002" stop-opacity="0.91"/><stop offset="0.6" stop-color="#990005" stop-opacity="0.94"/><stop offset="0.65" stop-color="#6f0007" stop-opacity="0.96"/><stop offset="0.71" stop-color="#4d0009" stop-opacity="0.97"/><stop offset="0.77" stop-color="#32000b" stop-opacity="0.98"/><stop offset="0.84" stop-color="#20000c" stop-opacity="0.99"/><stop offset="0.91" stop-color="#15000d"/><stop offset="1" stop-color="#11000d"/></linearGradient><linearGradient id="Unbenannter_Verlauf_27-2" x1="175.88" y1="158.5" x2="262" y2="158.5" gradientTransform="translate(-33.56 385.44) rotate(-90)" xlink:href="#Unbenannter_Verlauf_27"/><linearGradient id="Unbenannter_Verlauf_216" x1="17.73" y1="102.93" x2="112.29" y2="40.19" gradientUnits="userSpaceOnUse"><stop offset="0"/><stop offset="0.5" stop-color="#ff1000" stop-opacity="0.4"/><stop offset="1"/></linearGradient><linearGradient id="Unbenannter_Verlauf_216-2" x1="156.68" y1="325.3" x2="256.8" y2="258.87" gradientTransform="translate(389 556.67) rotate(180)" xlink:href="#Unbenannter_Verlauf_216"/></defs><title>c_14</title><g id="_14" data-name="14"><rect class="cls-1" x="3" y="2.5" width="244" height="328" rx="10.5" ry="10.5"/><path id="_Polygon_" data-name="&lt;Polygon&gt;" class="cls-2" d="M154,182.73l-24.08,7.37a17,17,0,0,1-9.93,0l-24.09-7.37a17,17,0,0,1-12-16.23h0a17,17,0,0,1,12-16.23L120,142.9a17,17,0,0,1,9.93,0L154,150.27a17,17,0,0,1,12,16.23h0A17,17,0,0,1,154,182.73Z"/><path id="_Polygon_2" data-name="&lt;Polygon&gt;" class="cls-3" d="M141.17,137.45l7.37,24.09a16.94,16.94,0,0,1,0,9.92l-7.37,24.09a17,17,0,0,1-16.23,12h0a17,17,0,0,1-16.23-12l-7.37-24.09a17.1,17.1,0,0,1,0-9.92l7.37-24.09a17,17,0,0,1,16.23-12h0A17,17,0,0,1,141.17,137.45Z"/><text class="cls-4" transform="translate(17 96.6)">A</text><text class="cls-4" transform="translate(17 96.6)">A</text><path class="cls-5" d="M57.64,16.55,69.39,95.6h-21l-1.1-14.21H39.93L38.69,95.6H17.44l10.48-79ZM46.74,67.38q-1.56-13.44-3.13-33.21-3.13,22.71-3.94,33.21Z"/><text class="cls-6" transform="translate(18 95.6)">A</text><text class="cls-4" transform="translate(234 237.07) rotate(180)">A</text><text class="cls-4" transform="translate(234 237.07) rotate(180)">A</text><path class="cls-7" d="M193.36,317.12l-11.75-79.05h21l1.1,14.21h7.35l1.24-14.21h21.25l-10.48,79.05Zm10.9-50.83q1.56,13.44,3.13,33.2,3.13-22.69,3.94-33.2Z"/><text class="cls-6" transform="translate(233 238.07) rotate(180)">A</text></g></svg>