<svg xmlns="http://www.w3.org/2000/svg" xmlns:xlink="http://www.w3.org/1999/xlink" viewBox="0 0 250 333"><defs><style>.cls-1{fill:#fff;stroke:url(#Neues_Verlaufsfeld_2);}.cls-1,.cls-2{stroke-miterlimit:10;stroke-width:4px;}.cls-2{fill:none;stroke:url(#Unbenannter_Verlauf_27);}.cls-3,.cls-5{font-size:100px;font-family:Impact, Impact;}.cls-3{fill:red;}.cls-4{fill:url(#Unbenannter_Verlauf_216);}.cls-6{fill:url(#Unbenannter_Verlauf_216-2);}</style><linearGradient id="Neues_Verlaufsfeld_2" x1="225.59" y1="340.73" x2="24.41" y2="-7.73" gradientUnits="userSpaceOnUse"><stop offset="0"/><stop offset="0.09" stop-color="#040000"/><stop offset="0.17" stop-color="#100" stop-opacity="0.99"/><stop offset="0.26" stop-color="#270000" stop-opacity="0.98"/><stop offset="0.34" stop-color="#460000" stop-opacity="0.97"/><stop offset="0.42" stop-color="#6e0000" stop-opacity="0.95"/><stop offset="0.51" stop-color="#9e0000" stop-opacity="0.93"/><stop offset="0.59" stop-color="#d70000" stop-opacity="0.91"/><stop offset="0.61" stop-color="#e60000" stop-opacity="0.9"/><stop offset="0.63" stop-color="#c90002" stop-opacity="0.91"/><stop offset="0.67" stop-color="#990005" stop-opacity="0.94"/><stop offset="0.72" stop-color="#6f0007" stop-opacity="0.96"/><stop offset="0.77" stop-color="#4d0009" stop-opacity="0.97"/><stop offset="0.82" stop-color="#32000b" stop-opacity="0.98"/><stop offset="0.87" stop-color="#20000c" stop-opacity="0.99"/><stop offset="0.93" stop-color="#15000d"/><stop offset="1" stop-color="#11000d"/></linearGradient><linearGradient id="Unbenannter_Verlauf_27" x1="81.88" y1="166.5" x2="168" y2="166.5" gradientUnits="userSpaceOnUse"><stop offset="0"/><stop offset="0.07" stop-color="#040000"/><stop offset="0.15" stop-color="#100" stop-opacity="0.99"/><stop offset="0.22" stop-color="#270000" stop-opacity="0.98"/><stop offset="0.29" stop-color="#460000" stop-opacity="0.97"/><stop offset="0.36" stop-color="#6e0000" stop-opacity="0.95"/><stop offset="0.43" stop-color="#9e0000" stop-opacity="0.93"/><stop offset="0.5" stop-color="#d70000" stop-opacity="0.91"/><stop offset="0.51" stop-color="#e60000" stop-opacity="0.9"/><stop offset="0.54" stop-color="#c90002" stop-opacity="0.91"/><stop offset="0.6" stop-color="#990005" stop-opacity="0.94"/><stop offset="0.65" stop-color="#6f0007" stop-opacity="0.96"/><stop offset="0.71" stop-color="#4d0009" stop-opacity="0.97"/><stop offset="0.77" stop-color="#32000b" stop-opacity="0.98"/><stop offset="0.84" stop-color="#20000c" stop-opacity="0.99"/><stop offset="0.91" stop-color="#15000d"/><stop offset="1" stop-color="#11000d"/></linearGradient><linearGradient id="Unbenannter_Verlauf_216" x1="18.05" y1="102.72" x2="112.05" y2="40.35" gradientUnits="userSpaceOnUse"><stop offset="0"/><stop offset="0.5" stop-color="#ff1000" stop-opacity="0.4"/><stop offset="1"/></linearGradient><linearGradient id="Unbenannter_Verlauf_216-2" x1="-6323.95" y1="325.72" x2="-6229.95" y2="263.35" gradientTransform="translate(-6091 556.67) rotate(180)" xlink:href="#Unbenannter_Verlauf_216"/></defs><title>c_2</title><g id="_2" data-name="2"><rect class="cls-1" x="3" y="2.5" width="244" height="328" rx="10.5" ry="10.5"/><path id="_Polygon_" data-name="&lt;Polygon&gt;" class="cls-2" d="M154,182.73l-24.08,7.37a17,17,0,0,1-9.93,0l-24.09-7.37a17,17,0,0,1-12-16.23h0a17,17,0,0,1,12-16.23L120,142.9a17,17,0,0,1,9.93,0L154,150.27a17,17,0,0,1,12,16.23h0A17,17,0,0,1,154,182.73Z"/><text class="cls-3" transform="translate(17 96.6)">2</text><text class="cls-3" transform="translate(17 96.6)">2</text><path class="cls-4" d="M64,82.12V95.6H20.64V84.32q19.29-31.54,22.92-39t3.64-11.69a8.53,8.53,0,0,0-1.1-4.81,3.79,3.79,0,0,0-3.35-1.59A3.69,3.69,0,0,0,39.41,29q-1.09,1.76-1.1,7v7.52H20.64V40.57a62.18,62.18,0,0,1,.68-10.47,18.47,18.47,0,0,1,3.37-7.55,17,17,0,0,1,7-5.61A25.32,25.32,0,0,1,42,15q11.78,0,17.8,5.84a19.67,19.67,0,0,1,6,14.77A35.14,35.14,0,0,1,62.41,50q-3.39,7.57-20,32.13Z"/><text class="cls-5" transform="translate(18 95.6)">2</text><text class="cls-3" transform="translate(234 237.07) rotate(180)">2</text><text class="cls-3" transform="translate(234 237.07) rotate(180)">2</text><path class="cls-6" d="M187,251.54V238.07h43.4v11.28q-19.29,31.54-22.92,39t-3.64,11.7a8.53,8.53,0,0,0,1.1,4.81,3.79,3.79,0,0,0,3.35,1.59,3.69,3.69,0,0,0,3.35-1.76q1.09-1.75,1.1-7v-7.52h17.67v2.88a62.35,62.35,0,0,1-.68,10.47,18.38,18.38,0,0,1-3.37,7.54,16.89,16.89,0,0,1-7,5.62,25.33,25.33,0,0,1-10.3,1.9q-11.78,0-17.8-5.83a19.67,19.67,0,0,1-6-14.77,35.18,35.18,0,0,1,3.39-14.36q3.39-7.56,20-32.13Z"/><text class="cls-5" transform="translate(233 238.07) rotate(180)">2</text></g></svg>