<svg xmlns="http://www.w3.org/2000/svg" xmlns:xlink="http://www.w3.org/1999/xlink" viewBox="0 0 250 333"><defs><style>.cls-1{fill:url(#Unbenannter_Verlauf_216);}.cls-2{fill:#fff;stroke:url(#Neues_Verlaufsfeld_2);}.cls-2,.cls-3{stroke-miterlimit:10;stroke-width:4px;}.cls-3{fill:none;stroke:url(#Unbenannter_Verlauf_27);}.cls-4,.cls-6{font-size:100px;font-family:Impact, Impact;}.cls-4{fill:red;}.cls-5{fill:url(#Unbenannter_Verlauf_216-15);}.cls-7{fill:url(#Unbenannter_Verlauf_216-16);}.cls-8{fill:url(#Unbenannter_Verlauf_216-17);}</style><linearGradient id="Unbenannter_Verlauf_216" x1="4.6" y1="246.38" x2="217" y2="105.46" gradientUnits="userSpaceOnUse"><stop offset="0"/><stop offset="0.5" stop-color="#ff1000" stop-opacity="0.4"/><stop offset="1"/></linearGradient><linearGradient id="Neues_Verlaufsfeld_2" x1="225.59" y1="340.73" x2="24.41" y2="-7.73" gradientUnits="userSpaceOnUse"><stop offset="0"/><stop offset="0.09" stop-color="#040000"/><stop offset="0.17" stop-color="#100" stop-opacity="0.99"/><stop offset="0.26" stop-color="#270000" stop-opacity="0.98"/><stop offset="0.34" stop-color="#460000" stop-opacity="0.97"/><stop offset="0.42" stop-color="#6e0000" stop-opacity="0.95"/><stop offset="0.51" stop-color="#9e0000" stop-opacity="0.93"/><stop offset="0.59" stop-color="#d70000" stop-opacity="0.91"/><stop offset="0.61" stop-color="#e60000" stop-opacity="0.9"/><stop offset="0.63" stop-color="#c90002" stop-opacity="0.91"/><stop offset="0.67" stop-color="#990005" stop-opacity="0.94"/><stop offset="0.72" stop-color="#6f0007" stop-opacity="0.96"/><stop offset="0.77" stop-color="#4d0009" stop-opacity="0.97"/><stop offset="0.82" stop-color="#32000b" stop-opacity="0.98"/><stop offset="0.87" stop-color="#20000c" stop-opacity="0.99"/><stop offset="0.93" stop-color="#15000d"/><stop offset="1" stop-color="#11000d"/></linearGradient><linearGradient id="Unbenannter_Verlauf_27" x1="81.88" y1="166.5" x2="168" y2="166.5" gradientUnits="userSpaceOnUse"><stop offset="0"/><stop offset="0.07" stop-color="#040000"/><stop offset="0.15" stop-color="#100" stop-opacity="0.99"/><stop offset="0.22" stop-color="#270000" stop-opacity="0.98"/><stop offset="0.29" stop-color="#460000" stop-opacity="0.97"/><stop offset="0.36" stop-color="#6e0000" stop-opacity="0.95"/><stop offset="0.43" stop-color="#9e0000" stop-opacity="0.93"/><stop offset="0.5" stop-color="#d70000" stop-opacity="0.91"/><stop offset="0.51" stop-color="#e60000" stop-opacity="0.9"/><stop offset="0.54" stop-color="#c90002" stop-opacity="0.91"/><stop offset="0.6" stop-color="#990005" stop-opacity="0.94"/><stop offset="0.65" stop-color="#6f0007" stop-opacity="0.96"/><stop offset="0.71" stop-color="#4d0009" stop-opacity="0.97"/><stop offset="0.77" stop-color="#32000b" stop-opacity="0.98"/><stop offset="0.84" stop-color="#20000c" stop-opacity="0.99"/><stop offset="0.91" stop-color="#15000d"/><stop offset="1" stop-color="#11000d"/></linearGradient><linearGradient id="Unbenannter_Verlauf_216-15" x1="18.71" y1="103.22" x2="114.04" y2="39.97" xlink:href="#Unbenannter_Verlauf_216"/><linearGradient id="Unbenannter_Verlauf_216-16" x1="125.21" y1="301.16" x2="220.54" y2="237.91" xlink:href="#Unbenannter_Verlauf_216"/><linearGradient id="Unbenannter_Verlauf_216-17" x1="-5783.29" y1="326.22" x2="-5687.95" y2="262.97" gradientTransform="translate(-5551 556.67) rotate(180)" xlink:href="#Unbenannter_Verlauf_216"/></defs><title>c_3</title><g id="_3" data-name="3"><rect class="cls-1" x="3" y="2.5" width="244" height="328" rx="10.5" ry="10.5"/><path id="_Pfad_" data-name="&lt;Pfad&gt;" class="cls-1" d="M154,182.73l-24.08,7.37a17,17,0,0,1-9.93,0l-24.09-7.37a17,17,0,0,1-12-16.23h0a17,17,0,0,1,12-16.23L120,142.9a17,17,0,0,1,9.93,0L154,150.27a17,17,0,0,1,12,16.23h0A17,17,0,0,1,154,182.73Z"/><path class="cls-1" d="M57.58,51.8a12.25,12.25,0,0,1,6.69,5q2.19,3.43,2.19,16.14,0,9.43-2.15,14.64a15.27,15.27,0,0,1-7.42,7.91q-5.26,2.72-13.52,2.71Q34,98.16,28.65,95t-7-7.71q-1.68-4.58-1.68-15.85V65.2H39.66V78q0,5.13.61,6.52c.4.93,1.31,1.39,2.71,1.39a2.92,2.92,0,0,0,3-1.75q.73-1.77.74-9.18V69.55a16,16,0,0,0-1-6.64,5.06,5.06,0,0,0-3-2.76,31.34,31.34,0,0,0-7.76-.76V47.92c4.69,0,7.58-.18,8.69-.54A3.77,3.77,0,0,0,46,45a16.13,16.13,0,0,0,.74-5.67V35q0-4.15-.86-5.47a3,3,0,0,0-2.66-1.32,2.91,2.91,0,0,0-2.81,1.39q-.75,1.4-.75,5.93V42H19.93V35.27q0-11.33,5.18-15.31t16.45-4Q55.68,16,60.7,21.5t5,15.32q0,6.63-1.81,9.59A16.15,16.15,0,0,1,57.58,51.8Z"/><path class="cls-1" d="M57.58,51.8a12.25,12.25,0,0,1,6.69,5q2.19,3.43,2.19,16.14,0,9.43-2.15,14.64a15.27,15.27,0,0,1-7.42,7.91q-5.26,2.72-13.52,2.71Q34,98.16,28.65,95t-7-7.71q-1.68-4.58-1.68-15.85V65.2H39.66V78q0,5.13.61,6.52c.4.93,1.31,1.39,2.71,1.39a2.92,2.92,0,0,0,3-1.75q.73-1.77.74-9.18V69.55a16,16,0,0,0-1-6.64,5.06,5.06,0,0,0-3-2.76,31.34,31.34,0,0,0-7.76-.76V47.92c4.69,0,7.58-.18,8.69-.54A3.77,3.77,0,0,0,46,45a16.13,16.13,0,0,0,.74-5.67V35q0-4.15-.86-5.47a3,3,0,0,0-2.66-1.32,2.91,2.91,0,0,0-2.81,1.39q-.75,1.4-.75,5.93V42H19.93V35.27q0-11.33,5.18-15.31t16.45-4Q55.68,16,60.7,21.5t5,15.32q0,6.63-1.81,9.59A16.15,16.15,0,0,1,57.58,51.8Z"/><path class="cls-1" d="M57.58,51.8a12.25,12.25,0,0,1,6.69,5q2.19,3.43,2.19,16.14,0,9.43-2.15,14.64a15.27,15.27,0,0,1-7.42,7.91q-5.26,2.72-13.52,2.71Q34,98.16,28.65,95t-7-7.71q-1.68-4.58-1.68-15.85V65.2H39.66V78q0,5.13.61,6.52c.4.93,1.31,1.39,2.71,1.39a2.92,2.92,0,0,0,3-1.75q.73-1.77.74-9.18V69.55a16,16,0,0,0-1-6.64,5.06,5.06,0,0,0-3-2.76,31.34,31.34,0,0,0-7.76-.76V47.92c4.69,0,7.58-.18,8.69-.54A3.77,3.77,0,0,0,46,45a16.13,16.13,0,0,0,.74-5.67V35q0-4.15-.86-5.47a3,3,0,0,0-2.66-1.32,2.91,2.91,0,0,0-2.81,1.39q-.75,1.4-.75,5.93V42H19.93V35.27q0-11.33,5.18-15.31t16.45-4Q55.68,16,60.7,21.5t5,15.32q0,6.63-1.81,9.59A16.15,16.15,0,0,1,57.58,51.8Z"/><path class="cls-1" d="M58.58,50.8a12.25,12.25,0,0,1,6.69,5q2.19,3.43,2.19,16.14,0,9.43-2.15,14.64a15.27,15.27,0,0,1-7.42,7.91q-5.26,2.72-13.52,2.71Q35,97.16,29.65,94t-7-7.71q-1.68-4.58-1.68-15.85V64.2H40.66V77q0,5.13.61,6.52c.4.93,1.31,1.39,2.71,1.39a2.92,2.92,0,0,0,3-1.75q.73-1.77.74-9.18V68.55a16,16,0,0,0-1-6.64,5.06,5.06,0,0,0-3-2.76,31.34,31.34,0,0,0-7.76-.76V46.92c4.69,0,7.58-.18,8.69-.54A3.77,3.77,0,0,0,47,44a16.13,16.13,0,0,0,.74-5.67V34q0-4.15-.86-5.47a3,3,0,0,0-2.66-1.32,2.91,2.91,0,0,0-2.81,1.39q-.75,1.4-.75,5.93V41H20.93V34.27q0-11.33,5.18-15.31t16.45-4Q56.68,15,61.7,20.5t5,15.32q0,6.63-1.81,9.59A16.15,16.15,0,0,1,58.58,50.8Z"/><path class="cls-1" d="M58.58,50.8a12.25,12.25,0,0,1,6.69,5q2.19,3.43,2.19,16.14,0,9.43-2.15,14.64a15.27,15.27,0,0,1-7.42,7.91q-5.26,2.72-13.52,2.71Q35,97.16,29.65,94t-7-7.71q-1.68-4.58-1.68-15.85V64.2H40.66V77q0,5.13.61,6.52c.4.93,1.31,1.39,2.71,1.39a2.92,2.92,0,0,0,3-1.75q.73-1.77.74-9.18V68.55a16,16,0,0,0-1-6.64,5.06,5.06,0,0,0-3-2.76,31.34,31.34,0,0,0-7.76-.76V46.92c4.69,0,7.58-.18,8.69-.54A3.77,3.77,0,0,0,47,44a16.13,16.13,0,0,0,.74-5.67V34q0-4.15-.86-5.47a3,3,0,0,0-2.66-1.32,2.91,2.91,0,0,0-2.81,1.39q-.75,1.4-.75,5.93V41H20.93V34.27q0-11.33,5.18-15.31t16.45-4Q56.68,15,61.7,20.5t5,15.32q0,6.63-1.81,9.59A16.15,16.15,0,0,1,58.58,50.8Z"/><path class="cls-1" d="M58.58,50.8a12.25,12.25,0,0,1,6.69,5q2.19,3.43,2.19,16.14,0,9.43-2.15,14.64a15.27,15.27,0,0,1-7.42,7.91q-5.26,2.72-13.52,2.71Q35,97.16,29.65,94t-7-7.71q-1.68-4.58-1.68-15.85V64.2H40.66V77q0,5.13.61,6.52c.4.93,1.31,1.39,2.71,1.39a2.92,2.92,0,0,0,3-1.75q.73-1.77.74-9.18V68.55a16,16,0,0,0-1-6.64,5.06,5.06,0,0,0-3-2.76,31.34,31.34,0,0,0-7.76-.76V46.92c4.69,0,7.58-.18,8.69-.54A3.77,3.77,0,0,0,47,44a16.13,16.13,0,0,0,.74-5.67V34q0-4.15-.86-5.47a3,3,0,0,0-2.66-1.32,2.91,2.91,0,0,0-2.81,1.39q-.75,1.4-.75,5.93V41H20.93V34.27q0-11.33,5.18-15.31t16.45-4Q56.68,15,61.7,20.5t5,15.32q0,6.63-1.81,9.59A16.15,16.15,0,0,1,58.58,50.8Z"/><path class="cls-1" d="M193.42,281.87a12.25,12.25,0,0,1-6.69-5q-2.19-3.45-2.19-16.15,0-9.42,2.15-14.63a15.2,15.2,0,0,1,7.42-7.91q5.26-2.72,13.52-2.72,9.38,0,14.72,3.15t7,7.72q1.68,4.56,1.68,15.84v6.25H211.34V255.62q0-5.13-.61-6.52c-.4-.92-1.31-1.39-2.71-1.39a2.92,2.92,0,0,0-3,1.76q-.74,1.75-.74,9.18v5.47a16,16,0,0,0,1,6.64,5.06,5.06,0,0,0,3,2.76,31,31,0,0,0,7.76.75v11.48c-4.69,0-7.58.18-8.69.54a3.75,3.75,0,0,0-2.39,2.34,16,16,0,0,0-.74,5.66v4.4q0,4.15.86,5.47a3,3,0,0,0,2.66,1.32,2.91,2.91,0,0,0,2.81-1.4q.75-1.38.75-5.93v-6.49h19.73v6.74q0,11.33-5.18,15.3t-16.45,4q-14.12,0-19.14-5.51t-5-15.32c0-4.43.6-7.62,1.81-9.59A16.07,16.07,0,0,1,193.42,281.87Z"/><path class="cls-1" d="M193.42,281.87a12.25,12.25,0,0,1-6.69-5q-2.19-3.45-2.19-16.15,0-9.42,2.15-14.63a15.2,15.2,0,0,1,7.42-7.91q5.26-2.72,13.52-2.72,9.38,0,14.72,3.15t7,7.72q1.68,4.56,1.68,15.84v6.25H211.34V255.62q0-5.13-.61-6.52c-.4-.92-1.31-1.39-2.71-1.39a2.92,2.92,0,0,0-3,1.76q-.74,1.75-.74,9.18v5.47a16,16,0,0,0,1,6.64,5.06,5.06,0,0,0,3,2.76,31,31,0,0,0,7.76.75v11.48c-4.69,0-7.58.18-8.69.54a3.75,3.75,0,0,0-2.39,2.34,16,16,0,0,0-.74,5.66v4.4q0,4.15.86,5.47a3,3,0,0,0,2.66,1.32,2.91,2.91,0,0,0,2.81-1.4q.75-1.38.75-5.93v-6.49h19.73v6.74q0,11.33-5.18,15.3t-16.45,4q-14.12,0-19.14-5.51t-5-15.32c0-4.43.6-7.62,1.81-9.59A16.07,16.07,0,0,1,193.42,281.87Z"/><path class="cls-1" d="M193.42,281.87a12.25,12.25,0,0,1-6.69-5q-2.19-3.45-2.19-16.15,0-9.42,2.15-14.63a15.2,15.2,0,0,1,7.42-7.91q5.26-2.72,13.52-2.72,9.38,0,14.72,3.15t7,7.72q1.68,4.56,1.68,15.84v6.25H211.34V255.62q0-5.13-.61-6.52c-.4-.92-1.31-1.39-2.71-1.39a2.92,2.92,0,0,0-3,1.76q-.74,1.75-.74,9.18v5.47a16,16,0,0,0,1,6.64,5.06,5.06,0,0,0,3,2.76,31,31,0,0,0,7.76.75v11.48c-4.69,0-7.58.18-8.69.54a3.75,3.75,0,0,0-2.39,2.34,16,16,0,0,0-.74,5.66v4.4q0,4.15.86,5.47a3,3,0,0,0,2.66,1.32,2.91,2.91,0,0,0,2.81-1.4q.75-1.38.75-5.93v-6.49h19.73v6.74q0,11.33-5.18,15.3t-16.45,4q-14.12,0-19.14-5.51t-5-15.32c0-4.43.6-7.62,1.81-9.59A16.07,16.07,0,0,1,193.42,281.87Z"/><g id="_2-2" data-name="2"><path class="cls-1" d="M192.42,282.87a12.25,12.25,0,0,1-6.69-5q-2.19-3.45-2.19-16.15,0-9.42,2.15-14.63a15.2,15.2,0,0,1,7.42-7.91q5.26-2.72,13.52-2.72,9.38,0,14.72,3.15t7,7.72q1.68,4.56,1.68,15.84v6.25H210.34V256.62q0-5.13-.61-6.52c-.4-.92-1.31-1.39-2.71-1.39a2.92,2.92,0,0,0-3,1.76q-.74,1.75-.74,9.18v5.47a16,16,0,0,0,1,6.64,5.06,5.06,0,0,0,3,2.76,31,31,0,0,0,7.76.75v11.48c-4.69,0-7.58.18-8.69.54a3.75,3.75,0,0,0-2.39,2.34,16,16,0,0,0-.74,5.66v4.4q0,4.15.86,5.47a3,3,0,0,0,2.66,1.32,2.91,2.91,0,0,0,2.81-1.4q.75-1.38.75-5.93v-6.49h19.73v6.74q0,11.33-5.18,15.3t-16.45,4q-14.12,0-19.14-5.51t-5-15.32c0-4.43.6-7.62,1.81-9.59A16.07,16.07,0,0,1,192.42,282.87Z"/><path class="cls-1" d="M192.42,282.87a12.25,12.25,0,0,1-6.69-5q-2.19-3.45-2.19-16.15,0-9.42,2.15-14.63a15.2,15.2,0,0,1,7.42-7.91q5.26-2.72,13.52-2.72,9.38,0,14.72,3.15t7,7.72q1.68,4.56,1.68,15.84v6.25H210.34V256.62q0-5.13-.61-6.52c-.4-.92-1.31-1.39-2.71-1.39a2.92,2.92,0,0,0-3,1.76q-.74,1.75-.74,9.18v5.47a16,16,0,0,0,1,6.64,5.06,5.06,0,0,0,3,2.76,31,31,0,0,0,7.76.75v11.48c-4.69,0-7.58.18-8.69.54a3.75,3.75,0,0,0-2.39,2.34,16,16,0,0,0-.74,5.66v4.4q0,4.15.86,5.47a3,3,0,0,0,2.66,1.32,2.91,2.91,0,0,0,2.81-1.4q.75-1.38.75-5.93v-6.49h19.73v6.74q0,11.33-5.18,15.3t-16.45,4q-14.12,0-19.14-5.51t-5-15.32c0-4.43.6-7.62,1.81-9.59A16.07,16.07,0,0,1,192.42,282.87Z"/><path class="cls-1" d="M192.42,282.87a12.25,12.25,0,0,1-6.69-5q-2.19-3.45-2.19-16.15,0-9.42,2.15-14.63a15.2,15.2,0,0,1,7.42-7.91q5.26-2.72,13.52-2.72,9.38,0,14.72,3.15t7,7.72q1.68,4.56,1.68,15.84v6.25H210.34V256.62q0-5.13-.61-6.52c-.4-.92-1.31-1.39-2.71-1.39a2.92,2.92,0,0,0-3,1.76q-.74,1.75-.74,9.18v5.47a16,16,0,0,0,1,6.64,5.06,5.06,0,0,0,3,2.76,31,31,0,0,0,7.76.75v11.48c-4.69,0-7.58.18-8.69.54a3.75,3.75,0,0,0-2.39,2.34,16,16,0,0,0-.74,5.66v4.4q0,4.15.86,5.47a3,3,0,0,0,2.66,1.32,2.91,2.91,0,0,0,2.81-1.4q.75-1.38.75-5.93v-6.49h19.73v6.74q0,11.33-5.18,15.3t-16.45,4q-14.12,0-19.14-5.51t-5-15.32c0-4.43.6-7.62,1.81-9.59A16.07,16.07,0,0,1,192.42,282.87Z"/></g><rect class="cls-2" x="3" y="2.5" width="244" height="328" rx="10.5" ry="10.5"/><path id="_Pfad_2" data-name="&lt;Pfad&gt;" class="cls-3" d="M154,182.73l-24.08,7.37a17,17,0,0,1-9.93,0l-24.09-7.37a17,17,0,0,1-12-16.23h0a17,17,0,0,1,12-16.23L120,142.9a17,17,0,0,1,9.93,0L154,150.27a17,17,0,0,1,12,16.23h0A17,17,0,0,1,154,182.73Z"/><text class="cls-4" transform="translate(17 96.6)">3</text><text class="cls-4" transform="translate(17 96.6)">3</text><path class="cls-5" d="M58.58,50.8a12.25,12.25,0,0,1,6.69,5q2.19,3.43,2.19,16.14,0,9.43-2.15,14.64a15.27,15.27,0,0,1-7.42,7.91q-5.26,2.72-13.52,2.71Q35,97.16,29.65,94t-7-7.71q-1.68-4.58-1.68-15.85V64.2H40.66V77q0,5.13.61,6.52c.4.93,1.31,1.39,2.71,1.39a2.92,2.92,0,0,0,3-1.75q.73-1.77.74-9.18V68.55a16,16,0,0,0-1-6.64,5.06,5.06,0,0,0-3-2.76,31.34,31.34,0,0,0-7.76-.76V46.92c4.69,0,7.58-.18,8.69-.54A3.77,3.77,0,0,0,47,44a16.13,16.13,0,0,0,.74-5.67V34q0-4.15-.86-5.47a3,3,0,0,0-2.66-1.32,2.91,2.91,0,0,0-2.81,1.39q-.75,1.4-.75,5.93V41H20.93V34.27q0-11.33,5.18-15.31t16.45-4Q56.68,15,61.7,20.5t5,15.32q0,6.63-1.81,9.59A16.15,16.15,0,0,1,58.58,50.8Z"/><text class="cls-6" transform="translate(18 95.6)">3</text><path class="cls-7" d="M193.42,281.87a12.25,12.25,0,0,1-6.69-5q-2.19-3.45-2.19-16.15,0-9.42,2.15-14.63a15.2,15.2,0,0,1,7.42-7.91q5.26-2.72,13.52-2.72,9.38,0,14.72,3.15t7,7.72q1.68,4.56,1.68,15.84v6.25H211.34V255.62q0-5.13-.61-6.52c-.4-.92-1.31-1.39-2.71-1.39a2.92,2.92,0,0,0-3,1.76q-.74,1.75-.74,9.18v5.47a16,16,0,0,0,1,6.64,5.06,5.06,0,0,0,3,2.76,31,31,0,0,0,7.76.75v11.48c-4.69,0-7.58.18-8.69.54a3.75,3.75,0,0,0-2.39,2.34,16,16,0,0,0-.74,5.66v4.4q0,4.15.86,5.47a3,3,0,0,0,2.66,1.32,2.91,2.91,0,0,0,2.81-1.4q.75-1.38.75-5.93v-6.49h19.73v6.74q0,11.33-5.18,15.3t-16.45,4q-14.12,0-19.14-5.51t-5-15.32c0-4.43.6-7.62,1.81-9.59A16.07,16.07,0,0,1,193.42,281.87Z"/><text class="cls-4" transform="translate(234 237.07) rotate(180)">3</text><g id="_2-3" data-name="2"><path class="cls-8" d="M192.42,282.87a12.25,12.25,0,0,1-6.69-5q-2.19-3.45-2.19-16.15,0-9.42,2.15-14.63a15.2,15.2,0,0,1,7.42-7.91q5.26-2.72,13.52-2.72,9.38,0,14.72,3.15t7,7.72q1.68,4.56,1.68,15.84v6.25H210.34V256.62q0-5.13-.61-6.52c-.4-.92-1.31-1.39-2.71-1.39a2.92,2.92,0,0,0-3,1.76q-.74,1.75-.74,9.18v5.47a16,16,0,0,0,1,6.64,5.06,5.06,0,0,0,3,2.76,31,31,0,0,0,7.76.75v11.48c-4.69,0-7.58.18-8.69.54a3.75,3.75,0,0,0-2.39,2.34,16,16,0,0,0-.74,5.66v4.4q0,4.15.86,5.47a3,3,0,0,0,2.66,1.32,2.91,2.91,0,0,0,2.81-1.4q.75-1.38.75-5.93v-6.49h19.73v6.74q0,11.33-5.18,15.3t-16.45,4q-14.12,0-19.14-5.51t-5-15.32c0-4.43.6-7.62,1.81-9.59A16.07,16.07,0,0,1,192.42,282.87Z"/><text class="cls-6" transform="translate(233 238.07) rotate(180)">3</text></g></g></svg>