<svg xmlns="http://www.w3.org/2000/svg" xmlns:xlink="http://www.w3.org/1999/xlink" viewBox="0 0 250 333"><defs><style>.cls-1{fill:#fff;stroke:url(#Neues_Verlaufsfeld_2);}.cls-1,.cls-2{stroke-miterlimit:10;stroke-width:4px;}.cls-2{fill:none;stroke:url(#Unbenannter_Verlauf_27);}.cls-3,.cls-5{font-size:100px;font-family:Impact, Impact;}.cls-3{fill:red;}.cls-4{fill:url(#Unbenannter_Verlauf_216);}.cls-6{fill:url(#Unbenannter_Verlauf_216-2);}</style><linearGradient id="Neues_Verlaufsfeld_2" x1="225.59" y1="340.73" x2="24.41" y2="-7.73" gradientUnits="userSpaceOnUse"><stop offset="0"/><stop offset="0.09" stop-color="#040000"/><stop offset="0.17" stop-color="#100" stop-opacity="0.99"/><stop offset="0.26" stop-color="#270000" stop-opacity="0.98"/><stop offset="0.34" stop-color="#460000" stop-opacity="0.97"/><stop offset="0.42" stop-color="#6e0000" stop-opacity="0.95"/><stop offset="0.51" stop-color="#9e0000" stop-opacity="0.93"/><stop offset="0.59" stop-color="#d70000" stop-opacity="0.91"/><stop offset="0.61" stop-color="#e60000" stop-opacity="0.9"/><stop offset="0.63" stop-color="#c90002" stop-opacity="0.91"/><stop offset="0.67" stop-color="#990005" stop-opacity="0.94"/><stop offset="0.72" stop-color="#6f0007" stop-opacity="0.96"/><stop offset="0.77" stop-color="#4d0009" stop-opacity="0.97"/><stop offset="0.82" stop-color="#32000b" stop-opacity="0.98"/><stop offset="0.87" stop-color="#20000c" stop-opacity="0.99"/><stop offset="0.93" stop-color="#15000d"/><stop offset="1" stop-color="#11000d"/></linearGradient><linearGradient id="Unbenannter_Verlauf_27" x1="81.88" y1="166.5" x2="168" y2="166.5" gradientUnits="userSpaceOnUse"><stop offset="0"/><stop offset="0.07" stop-color="#040000"/><stop offset="0.15" stop-color="#100" stop-opacity="0.99"/><stop offset="0.22" stop-color="#270000" stop-opacity="0.98"/><stop offset="0.29" stop-color="#460000" stop-opacity="0.97"/><stop offset="0.36" stop-color="#6e0000" stop-opacity="0.95"/><stop offset="0.43" stop-color="#9e0000" stop-opacity="0.93"/><stop offset="0.5" stop-color="#d70000" stop-opacity="0.91"/><stop offset="0.51" stop-color="#e60000" stop-opacity="0.9"/><stop offset="0.54" stop-color="#c90002" stop-opacity="0.91"/><stop offset="0.6" stop-color="#990005" stop-opacity="0.94"/><stop offset="0.65" stop-color="#6f0007" stop-opacity="0.96"/><stop offset="0.71" stop-color="#4d0009" stop-opacity="0.97"/><stop offset="0.77" stop-color="#32000b" stop-opacity="0.98"/><stop offset="0.84" stop-color="#20000c" stop-opacity="0.99"/><stop offset="0.91" stop-color="#15000d"/><stop offset="1" stop-color="#11000d"/></linearGradient><linearGradient id="Unbenannter_Verlauf_216" x1="17.99" y1="102.68" x2="111.88" y2="40.38" gradientUnits="userSpaceOnUse"><stop offset="0"/><stop offset="0.5" stop-color="#ff1000" stop-opacity="0.4"/><stop offset="1"/></linearGradient><linearGradient id="Unbenannter_Verlauf_216-2" x1="-5244.01" y1="325.68" x2="-5150.12" y2="263.38" gradientTransform="translate(-5011 556.67) rotate(180)" xlink:href="#Unbenannter_Verlauf_216"/></defs><title>c_4</title><g id="_4" data-name="4"><rect class="cls-1" x="3" y="2.5" width="244" height="328" rx="10.5" ry="10.5"/><path id="_Polygon_" data-name="&lt;Polygon&gt;" class="cls-2" d="M154,182.73l-24.08,7.37a17,17,0,0,1-9.93,0l-24.09-7.37a17,17,0,0,1-12-16.23h0a17,17,0,0,1,12-16.23L120,142.9a17,17,0,0,1,9.93,0L154,150.27a17,17,0,0,1,12,16.23h0A17,17,0,0,1,154,182.73Z"/><text class="cls-3" transform="translate(17 96.6)">4</text><text class="cls-3" transform="translate(17 96.6)">4</text><path class="cls-4" d="M61.75,16.55V68.21h5.62V81.68H61.75V95.6H42V81.68H18.59V68.21l17-51.66ZM42,68.21V34.56L33.31,68.21Z"/><text class="cls-5" transform="translate(18 95.6)">4</text><text class="cls-3" transform="translate(234 237.07) rotate(180)">4</text><text class="cls-3" transform="translate(234 237.07) rotate(180)">4</text><path class="cls-6" d="M189.25,317.12V265.46h-5.62V252h5.62V238.07H209V252h23.43v13.48l-17,51.66ZM209,265.46V299.1l8.71-33.64Z"/><text class="cls-5" transform="translate(233 238.07) rotate(180)">4</text></g></svg>