<svg xmlns="http://www.w3.org/2000/svg" xmlns:xlink="http://www.w3.org/1999/xlink" viewBox="0 0 250 333"><defs><style>.cls-1{fill:#fff;stroke:url(#Neues_Verlaufsfeld_2);}.cls-1,.cls-2{stroke-miterlimit:10;stroke-width:4px;}.cls-2{fill:none;stroke:url(#Unbenannter_Verlauf_27);}.cls-3,.cls-5{font-size:100px;font-family:Impact, Impact;}.cls-3{fill:red;}.cls-4{fill:url(#Unbenannter_Verlauf_216);}.cls-6{fill:url(#Unbenannter_Verlauf_216-2);}</style><linearGradient id="Neues_Verlaufsfeld_2" x1="225.59" y1="340.73" x2="24.41" y2="-7.73" gradientUnits="userSpaceOnUse"><stop offset="0"/><stop offset="0.09" stop-color="#040000"/><stop offset="0.17" stop-color="#100" stop-opacity="0.99"/><stop offset="0.26" stop-color="#270000" stop-opacity="0.98"/><stop offset="0.34" stop-color="#460000" stop-opacity="0.97"/><stop offset="0.42" stop-color="#6e0000" stop-opacity="0.95"/><stop offset="0.51" stop-color="#9e0000" stop-opacity="0.93"/><stop offset="0.59" stop-color="#d70000" stop-opacity="0.91"/><stop offset="0.61" stop-color="#e60000" stop-opacity="0.9"/><stop offset="0.63" stop-color="#c90002" stop-opacity="0.91"/><stop offset="0.67" stop-color="#990005" stop-opacity="0.94"/><stop offset="0.72" stop-color="#6f0007" stop-opacity="0.96"/><stop offset="0.77" stop-color="#4d0009" stop-opacity="0.97"/><stop offset="0.82" stop-color="#32000b" stop-opacity="0.98"/><stop offset="0.87" stop-color="#20000c" stop-opacity="0.99"/><stop offset="0.93" stop-color="#15000d"/><stop offset="1" stop-color="#11000d"/></linearGradient><linearGradient id="Unbenannter_Verlauf_27" x1="81.88" y1="166.5" x2="168" y2="166.5" gradientUnits="userSpaceOnUse"><stop offset="0"/><stop offset="0.07" stop-color="#040000"/><stop offset="0.15" stop-color="#100" stop-opacity="0.99"/><stop offset="0.22" stop-color="#270000" stop-opacity="0.98"/><stop offset="0.29" stop-color="#460000" stop-opacity="0.97"/><stop offset="0.36" stop-color="#6e0000" stop-opacity="0.95"/><stop offset="0.43" stop-color="#9e0000" stop-opacity="0.93"/><stop offset="0.5" stop-color="#d70000" stop-opacity="0.91"/><stop offset="0.51" stop-color="#e60000" stop-opacity="0.9"/><stop offset="0.54" stop-color="#c90002" stop-opacity="0.91"/><stop offset="0.6" stop-color="#990005" stop-opacity="0.94"/><stop offset="0.65" stop-color="#6f0007" stop-opacity="0.96"/><stop offset="0.71" stop-color="#4d0009" stop-opacity="0.97"/><stop offset="0.77" stop-color="#32000b" stop-opacity="0.98"/><stop offset="0.84" stop-color="#20000c" stop-opacity="0.99"/><stop offset="0.91" stop-color="#15000d"/><stop offset="1" stop-color="#11000d"/></linearGradient><linearGradient id="Unbenannter_Verlauf_216" x1="18.86" y1="103.33" x2="114.49" y2="39.88" gradientUnits="userSpaceOnUse"><stop offset="0"/><stop offset="0.5" stop-color="#ff1000" stop-opacity="0.4"/><stop offset="1"/></linearGradient><linearGradient id="Unbenannter_Verlauf_216-2" x1="-4703.14" y1="326.33" x2="-4607.51" y2="262.88" gradientTransform="translate(-4471 556.67) rotate(180)" xlink:href="#Unbenannter_Verlauf_216"/></defs><title>c_5</title><g id="_5" data-name="5"><rect class="cls-1" x="3" y="2.5" width="244" height="328" rx="10.5" ry="10.5"/><path id="_Polygon_" data-name="&lt;Polygon&gt;" class="cls-2" d="M154,182.73l-24.08,7.37a17,17,0,0,1-9.93,0l-24.09-7.37a17,17,0,0,1-12-16.23h0a17,17,0,0,1,12-16.23L120,142.9a17,17,0,0,1,9.93,0L154,150.27a17,17,0,0,1,12,16.23h0A17,17,0,0,1,154,182.73Z"/><text class="cls-3" transform="translate(17 96.6)">5</text><text class="cls-3" transform="translate(17 96.6)">5</text><path class="cls-4" d="M64.58,16.55V29.19H40.12V42.62A14.79,14.79,0,0,1,51.94,37.2q8.14,0,12.32,4.57t4.18,17.55V70.6a67.26,67.26,0,0,1-.81,12.33,17.1,17.1,0,0,1-3.44,7.27,16.58,16.58,0,0,1-7.35,5.13,32.58,32.58,0,0,1-11.5,1.78,31.83,31.83,0,0,1-13.42-2.66,16.05,16.05,0,0,1-8.26-7.93q-2.43-5.28-2.44-16.31v-4.3H41v4.93a75.2,75.2,0,0,0,.54,10.89A3.41,3.41,0,0,0,45.2,85,3.26,3.26,0,0,0,48.54,82q.08-1.06.17-9.32V57q0-4.44-.92-6.05a3.28,3.28,0,0,0-3.08-1.61,3.35,3.35,0,0,0-2.3.83A3.79,3.79,0,0,0,41.22,52,21.46,21.46,0,0,0,41,56.39H21.42l.83-39.84Z"/><text class="cls-5" transform="translate(18 95.6)">5</text><text class="cls-3" transform="translate(234 237.07) rotate(180)">5</text><text class="cls-3" transform="translate(234 237.07) rotate(180)">5</text><path class="cls-6" d="M186.42,317.12V304.47h24.46V291.05a14.79,14.79,0,0,1-11.82,5.42q-8.15,0-12.32-4.57t-4.18-17.55V263.07a67.26,67.26,0,0,1,.81-12.33,17.14,17.14,0,0,1,3.44-7.28,16.48,16.48,0,0,1,7.35-5.12,32.56,32.56,0,0,1,11.5-1.79,32,32,0,0,1,13.42,2.66,16.07,16.07,0,0,1,8.26,7.94q2.43,5.28,2.44,16.31v4.29H210.05v-4.93a75.2,75.2,0,0,0-.54-10.89,3.42,3.42,0,0,0-3.71-3.22,3.28,3.28,0,0,0-3.34,2.93q-.08,1.08-.17,9.33v15.67q0,4.44.92,6.06a3.28,3.28,0,0,0,3.08,1.61,3.35,3.35,0,0,0,2.3-.83,3.84,3.84,0,0,0,1.19-1.78,21.46,21.46,0,0,0,.27-4.42h19.53l-.83,39.84Z"/><text class="cls-5" transform="translate(233 238.07) rotate(180)">5</text></g></svg>