<svg xmlns="http://www.w3.org/2000/svg" xmlns:xlink="http://www.w3.org/1999/xlink" viewBox="0 0 250 333"><defs><style>.cls-1{fill:#fff;stroke:url(#Neues_Verlaufsfeld_2);}.cls-1,.cls-2{stroke-miterlimit:10;stroke-width:4px;}.cls-2{fill:none;stroke:url(#Unbenannter_Verlauf_27);}.cls-3,.cls-5{font-size:100px;font-family:Impact, Impact;}.cls-3{fill:red;}.cls-4{fill:url(#Unbenannter_Verlauf_216);}.cls-6{fill:url(#Unbenannter_Verlauf_216-2);}</style><linearGradient id="Neues_Verlaufsfeld_2" x1="220.59" y1="341.73" x2="19.41" y2="-6.73" gradientUnits="userSpaceOnUse"><stop offset="0"/><stop offset="0.09" stop-color="#040000"/><stop offset="0.17" stop-color="#100" stop-opacity="0.99"/><stop offset="0.26" stop-color="#270000" stop-opacity="0.98"/><stop offset="0.34" stop-color="#460000" stop-opacity="0.97"/><stop offset="0.42" stop-color="#6e0000" stop-opacity="0.95"/><stop offset="0.51" stop-color="#9e0000" stop-opacity="0.93"/><stop offset="0.59" stop-color="#d70000" stop-opacity="0.91"/><stop offset="0.61" stop-color="#e60000" stop-opacity="0.9"/><stop offset="0.63" stop-color="#c90002" stop-opacity="0.91"/><stop offset="0.67" stop-color="#990005" stop-opacity="0.94"/><stop offset="0.72" stop-color="#6f0007" stop-opacity="0.96"/><stop offset="0.77" stop-color="#4d0009" stop-opacity="0.97"/><stop offset="0.82" stop-color="#32000b" stop-opacity="0.98"/><stop offset="0.87" stop-color="#20000c" stop-opacity="0.99"/><stop offset="0.93" stop-color="#15000d"/><stop offset="1" stop-color="#11000d"/></linearGradient><linearGradient id="Unbenannter_Verlauf_27" x1="76.88" y1="167.5" x2="163" y2="167.5" gradientUnits="userSpaceOnUse"><stop offset="0"/><stop offset="0.07" stop-color="#040000"/><stop offset="0.15" stop-color="#100" stop-opacity="0.99"/><stop offset="0.22" stop-color="#270000" stop-opacity="0.98"/><stop offset="0.29" stop-color="#460000" stop-opacity="0.97"/><stop offset="0.36" stop-color="#6e0000" stop-opacity="0.95"/><stop offset="0.43" stop-color="#9e0000" stop-opacity="0.93"/><stop offset="0.5" stop-color="#d70000" stop-opacity="0.91"/><stop offset="0.51" stop-color="#e60000" stop-opacity="0.9"/><stop offset="0.54" stop-color="#c90002" stop-opacity="0.91"/><stop offset="0.6" stop-color="#990005" stop-opacity="0.94"/><stop offset="0.65" stop-color="#6f0007" stop-opacity="0.96"/><stop offset="0.71" stop-color="#4d0009" stop-opacity="0.97"/><stop offset="0.77" stop-color="#32000b" stop-opacity="0.98"/><stop offset="0.84" stop-color="#20000c" stop-opacity="0.99"/><stop offset="0.91" stop-color="#15000d"/><stop offset="1" stop-color="#11000d"/></linearGradient><linearGradient id="Unbenannter_Verlauf_216" x1="13.97" y1="104.42" x2="109.83" y2="40.81" gradientUnits="userSpaceOnUse"><stop offset="0"/><stop offset="0.5" stop-color="#ff1000" stop-opacity="0.4"/><stop offset="1"/></linearGradient><linearGradient id="Unbenannter_Verlauf_216-2" x1="-4158.03" y1="325.42" x2="-4062.17" y2="261.82" gradientTransform="translate(-3931 556.67) rotate(180)" xlink:href="#Unbenannter_Verlauf_216"/></defs><title>c_6</title><g id="_6" data-name="6"><rect class="cls-1" x="-2" y="3.5" width="244" height="328" rx="10.5" ry="10.5"/><path id="_Polygon_" data-name="&lt;Polygon&gt;" class="cls-2" d="M149,183.73l-24.08,7.37a17,17,0,0,1-9.93,0l-24.09-7.37a17,17,0,0,1-12-16.23h0a17,17,0,0,1,12-16.23L115,143.9a17,17,0,0,1,9.93,0L149,151.27a17,17,0,0,1,12,16.23h0A17,17,0,0,1,149,183.73Z"/><text class="cls-3" transform="translate(12 97.6)">6</text><text class="cls-3" transform="translate(12 97.6)">6</text><path class="cls-4" d="M63.88,38.54H44.15q0-5.52-.12-7a3.58,3.58,0,0,0-1.17-2.41,4,4,0,0,0-2.86-1,3.46,3.46,0,0,0-2.49.93,3.69,3.69,0,0,0-1.12,2.39q-.15,1.47-.15,5.91V50a10.2,10.2,0,0,1,4.45-4.76,15,15,0,0,1,7.22-1.59,16.19,16.19,0,0,1,9.57,2.93,12.73,12.73,0,0,1,5.28,7,44,44,0,0,1,1.12,11.08V71a86.24,86.24,0,0,1-.64,12.36,15.67,15.67,0,0,1-3.39,7.49,17.83,17.83,0,0,1-7.57,5.35,30.27,30.27,0,0,1-11.2,1.9q-8,0-13-2.19a17.54,17.54,0,0,1-7.84-6.33A18.89,18.89,0,0,1,17,80.92q-.46-4.53-.46-17.62V52.36q0-14.11.41-18.87a18.33,18.33,0,0,1,3.39-9,18.1,18.1,0,0,1,8.13-6.37A31,31,0,0,1,40.34,16Q48.65,16,54,18.67a16.06,16.06,0,0,1,7.61,7.57A28.88,28.88,0,0,1,63.88,38.54ZM44.15,63.2q0-4.2-.93-5.76a3.23,3.23,0,0,0-3-1.56,3.3,3.3,0,0,0-3,1.49q-.94,1.49-.95,5.83V77.51q0,5.22.91,6.83a3.15,3.15,0,0,0,3,1.61,4,4,0,0,0,2.64-1.24q1.37-1.24,1.36-6.71Z"/><text class="cls-5" transform="translate(13 96.6)">6</text><text class="cls-3" transform="translate(229 238.07) rotate(180)">6</text><text class="cls-3" transform="translate(229 238.07) rotate(180)">6</text><path class="cls-6" d="M177.12,297.12h19.73q0,5.52.12,7a3.6,3.6,0,0,0,1.17,2.42,4,4,0,0,0,2.86,1,3.46,3.46,0,0,0,2.49-.93,3.71,3.71,0,0,0,1.12-2.39q.15-1.47.15-5.91v-12.6a10.25,10.25,0,0,1-4.45,4.76,15,15,0,0,1-7.22,1.59,16.19,16.19,0,0,1-9.57-2.93,12.76,12.76,0,0,1-5.28-7A44.07,44.07,0,0,1,177.12,271v-6.3a86.07,86.07,0,0,1,.64-12.35,15.75,15.75,0,0,1,3.39-7.5,17.9,17.9,0,0,1,7.57-5.34,30.27,30.27,0,0,1,11.2-1.91,33.15,33.15,0,0,1,13,2.2,17.52,17.52,0,0,1,7.84,6.32,18.89,18.89,0,0,1,3.22,8.67q.47,4.54.46,17.63v10.94q0,14.1-.41,18.87a18.4,18.4,0,0,1-3.39,9,18.16,18.16,0,0,1-8.13,6.37,31.14,31.14,0,0,1-11.89,2.12q-8.31,0-13.63-2.68a16.11,16.11,0,0,1-7.61-7.57A29,29,0,0,1,177.12,297.12Zm19.73-24.65q0,4.2.93,5.76a3.23,3.23,0,0,0,3,1.56,3.33,3.33,0,0,0,3-1.49c.63-1,.95-2.94.95-5.83V258.16q0-5.22-.91-6.84a3.17,3.17,0,0,0-3-1.61,4.06,4.06,0,0,0-2.64,1.25q-1.36,1.24-1.36,6.71Z"/><text class="cls-5" transform="translate(228 239.07) rotate(180)">6</text></g></svg>