<svg xmlns="http://www.w3.org/2000/svg" xmlns:xlink="http://www.w3.org/1999/xlink" viewBox="0 0 250 333"><defs><style>.cls-1{fill:#fff;stroke:url(#Neues_Verlaufsfeld_2);}.cls-1,.cls-2{stroke-miterlimit:10;stroke-width:4px;}.cls-2{fill:none;stroke:url(#Unbenannter_Verlauf_27);}.cls-3,.cls-5{font-size:100px;font-family:Impact, Impact;}.cls-3{fill:red;}.cls-4{fill:url(#Unbenannter_Verlauf_216);}.cls-6{fill:url(#Unbenannter_Verlauf_216-2);}</style><linearGradient id="Neues_Verlaufsfeld_2" x1="225.59" y1="340.73" x2="24.41" y2="-7.73" gradientUnits="userSpaceOnUse"><stop offset="0"/><stop offset="0.09" stop-color="#040000"/><stop offset="0.17" stop-color="#100" stop-opacity="0.99"/><stop offset="0.26" stop-color="#270000" stop-opacity="0.98"/><stop offset="0.34" stop-color="#460000" stop-opacity="0.97"/><stop offset="0.42" stop-color="#6e0000" stop-opacity="0.95"/><stop offset="0.51" stop-color="#9e0000" stop-opacity="0.93"/><stop offset="0.59" stop-color="#d70000" stop-opacity="0.91"/><stop offset="0.61" stop-color="#e60000" stop-opacity="0.9"/><stop offset="0.63" stop-color="#c90002" stop-opacity="0.91"/><stop offset="0.67" stop-color="#990005" stop-opacity="0.94"/><stop offset="0.72" stop-color="#6f0007" stop-opacity="0.96"/><stop offset="0.77" stop-color="#4d0009" stop-opacity="0.97"/><stop offset="0.82" stop-color="#32000b" stop-opacity="0.98"/><stop offset="0.87" stop-color="#20000c" stop-opacity="0.99"/><stop offset="0.93" stop-color="#15000d"/><stop offset="1" stop-color="#11000d"/></linearGradient><linearGradient id="Unbenannter_Verlauf_27" x1="81.88" y1="166.5" x2="168" y2="166.5" gradientUnits="userSpaceOnUse"><stop offset="0"/><stop offset="0.07" stop-color="#040000"/><stop offset="0.15" stop-color="#100" stop-opacity="0.99"/><stop offset="0.22" stop-color="#270000" stop-opacity="0.98"/><stop offset="0.29" stop-color="#460000" stop-opacity="0.97"/><stop offset="0.36" stop-color="#6e0000" stop-opacity="0.95"/><stop offset="0.43" stop-color="#9e0000" stop-opacity="0.93"/><stop offset="0.5" stop-color="#d70000" stop-opacity="0.91"/><stop offset="0.51" stop-color="#e60000" stop-opacity="0.9"/><stop offset="0.54" stop-color="#c90002" stop-opacity="0.91"/><stop offset="0.6" stop-color="#990005" stop-opacity="0.94"/><stop offset="0.65" stop-color="#6f0007" stop-opacity="0.96"/><stop offset="0.71" stop-color="#4d0009" stop-opacity="0.97"/><stop offset="0.77" stop-color="#32000b" stop-opacity="0.98"/><stop offset="0.84" stop-color="#20000c" stop-opacity="0.99"/><stop offset="0.91" stop-color="#15000d"/><stop offset="1" stop-color="#11000d"/></linearGradient><linearGradient id="Unbenannter_Verlauf_216" x1="18.81" y1="103.3" x2="114.35" y2="39.91" gradientUnits="userSpaceOnUse"><stop offset="0"/><stop offset="0.5" stop-color="#ff1000" stop-opacity="0.4"/><stop offset="1"/></linearGradient><linearGradient id="Unbenannter_Verlauf_216-2" x1="-3083.19" y1="326.3" x2="-2987.64" y2="262.91" gradientTransform="translate(-2851 556.67) rotate(180)" xlink:href="#Unbenannter_Verlauf_216"/></defs><title>c_8</title><g id="_8" data-name="8"><rect class="cls-1" x="3" y="2.5" width="244" height="328" rx="10.5" ry="10.5"/><path id="_Polygon_" data-name="&lt;Polygon&gt;" class="cls-2" d="M154,182.73l-24.08,7.37a17,17,0,0,1-9.93,0l-24.09-7.37a17,17,0,0,1-12-16.23h0a17,17,0,0,1,12-16.23L120,142.9a17,17,0,0,1,9.93,0L154,150.27a17,17,0,0,1,12,16.23h0A17,17,0,0,1,154,182.73Z"/><text class="cls-3" transform="translate(17 96.6)">8</text><text class="cls-3" transform="translate(17 96.6)">8</text><path class="cls-4" d="M59.16,50.75A14.17,14.17,0,0,1,65.85,56q2.34,3.49,2.35,16.64,0,9.57-1.86,14.12a15.18,15.18,0,0,1-7.23,7.45q-5.37,2.9-14.4,2.9-8.79,0-13.92-2.78A16.73,16.73,0,0,1,23.44,87q-2.22-4.59-2.22-15.29a62,62,0,0,1,1.1-12.46q1.09-5.28,6.91-8.45a11.44,11.44,0,0,1-5.49-5.59,22.58,22.58,0,0,1-1.83-9.73q0-10.2,5.66-15.3T44.51,15q13.05,0,18,5.42t5,15.47q0,6.39-1.63,9.22T59.16,50.75ZM48.47,66.64q0-4.53-.93-6a3.2,3.2,0,0,0-2.93-1.49,3,3,0,0,0-2.81,1.44Q40.94,62,41,66.64V76.9c0,3.42.32,5.61.95,6.59a3.32,3.32,0,0,0,3,1.46,2.85,2.85,0,0,0,2.84-1.49c.48-1,.73-3.23.73-6.71Zm-.39-32.86c0-2.67-.24-4.43-.71-5.3a2.81,2.81,0,0,0-2.71-1.29A2.66,2.66,0,0,0,42,28.58a13.45,13.45,0,0,0-.68,5.2v6a10.88,10.88,0,0,0,.78,4.93,2.8,2.8,0,0,0,2.64,1.37,2.66,2.66,0,0,0,2.63-1.35q.69-1.34.69-5.54Z"/><text class="cls-5" transform="translate(18 95.6)">8</text><text class="cls-3" transform="translate(234 237.07) rotate(180)">8</text><text class="cls-3" transform="translate(234 237.07) rotate(180)">8</text><path class="cls-6" d="M191.84,282.92a14.25,14.25,0,0,1-6.69-5.26q-2.34-3.48-2.35-16.63,0-9.57,1.86-14.12a15.14,15.14,0,0,1,7.23-7.45q5.37-2.91,14.4-2.91,8.79,0,13.92,2.79a16.65,16.65,0,0,1,7.35,7.37c1.48,3.07,2.22,8.16,2.22,15.3a61.9,61.9,0,0,1-1.1,12.45q-1.1,5.28-6.91,8.46a11.46,11.46,0,0,1,5.49,5.58,22.63,22.63,0,0,1,1.83,9.74q0,10.2-5.66,15.29t-16.94,5.1q-13.05,0-18-5.41t-5-15.47c0-4.26.54-7.34,1.63-9.22S188.45,284.77,191.84,282.92ZM202.53,267q0,4.55.93,6a3.2,3.2,0,0,0,2.93,1.49,3,3,0,0,0,2.81-1.44c.57-1,.85-3,.85-6.08V256.77q0-5.13-1-6.59a3.33,3.33,0,0,0-3-1.47,2.87,2.87,0,0,0-2.84,1.49c-.48,1-.73,3.23-.73,6.72Zm.39,32.86c0,2.67.24,4.44.71,5.3a2.82,2.82,0,0,0,2.71,1.3,2.67,2.67,0,0,0,2.64-1.4,13.42,13.42,0,0,0,.68-5.2v-6a10.85,10.85,0,0,0-.78-4.93,2.8,2.8,0,0,0-2.64-1.37,2.67,2.67,0,0,0-2.63,1.34c-.46.9-.69,2.74-.69,5.54Z"/><text class="cls-5" transform="translate(233 238.07) rotate(180)">8</text></g></svg>