<svg xmlns="http://www.w3.org/2000/svg" xmlns:xlink="http://www.w3.org/1999/xlink" viewBox="0 0 250 333"><defs><style>.cls-1{fill:#fff;stroke:url(#Neues_Verlaufsfeld_2);}.cls-1,.cls-2{stroke-miterlimit:10;stroke-width:4px;}.cls-2{fill:none;stroke:url(#Unbenannter_Verlauf_27);}.cls-3,.cls-5{font-size:100px;font-family:Impact, Impact;}.cls-3{fill:red;}.cls-4{fill:url(#Unbenannter_Verlauf_216);}.cls-6{fill:url(#Unbenannter_Verlauf_216-2);}</style><linearGradient id="Neues_Verlaufsfeld_2" x1="225.59" y1="340.73" x2="24.41" y2="-7.73" gradientUnits="userSpaceOnUse"><stop offset="0"/><stop offset="0.09" stop-color="#040000"/><stop offset="0.17" stop-color="#100" stop-opacity="0.99"/><stop offset="0.26" stop-color="#270000" stop-opacity="0.98"/><stop offset="0.34" stop-color="#460000" stop-opacity="0.97"/><stop offset="0.42" stop-color="#6e0000" stop-opacity="0.95"/><stop offset="0.51" stop-color="#9e0000" stop-opacity="0.93"/><stop offset="0.59" stop-color="#d70000" stop-opacity="0.91"/><stop offset="0.61" stop-color="#e60000" stop-opacity="0.9"/><stop offset="0.63" stop-color="#c90002" stop-opacity="0.91"/><stop offset="0.67" stop-color="#990005" stop-opacity="0.94"/><stop offset="0.72" stop-color="#6f0007" stop-opacity="0.96"/><stop offset="0.77" stop-color="#4d0009" stop-opacity="0.97"/><stop offset="0.82" stop-color="#32000b" stop-opacity="0.98"/><stop offset="0.87" stop-color="#20000c" stop-opacity="0.99"/><stop offset="0.93" stop-color="#15000d"/><stop offset="1" stop-color="#11000d"/></linearGradient><linearGradient id="Unbenannter_Verlauf_27" x1="81.88" y1="166.5" x2="168" y2="166.5" gradientUnits="userSpaceOnUse"><stop offset="0"/><stop offset="0.07" stop-color="#040000"/><stop offset="0.15" stop-color="#100" stop-opacity="0.99"/><stop offset="0.22" stop-color="#270000" stop-opacity="0.98"/><stop offset="0.29" stop-color="#460000" stop-opacity="0.97"/><stop offset="0.36" stop-color="#6e0000" stop-opacity="0.95"/><stop offset="0.43" stop-color="#9e0000" stop-opacity="0.93"/><stop offset="0.5" stop-color="#d70000" stop-opacity="0.91"/><stop offset="0.51" stop-color="#e60000" stop-opacity="0.9"/><stop offset="0.54" stop-color="#c90002" stop-opacity="0.91"/><stop offset="0.6" stop-color="#990005" stop-opacity="0.94"/><stop offset="0.65" stop-color="#6f0007" stop-opacity="0.96"/><stop offset="0.71" stop-color="#4d0009" stop-opacity="0.97"/><stop offset="0.77" stop-color="#32000b" stop-opacity="0.98"/><stop offset="0.84" stop-color="#20000c" stop-opacity="0.99"/><stop offset="0.91" stop-color="#15000d"/><stop offset="1" stop-color="#11000d"/></linearGradient><linearGradient id="Unbenannter_Verlauf_216" x1="18.97" y1="103.42" x2="114.83" y2="39.81" gradientUnits="userSpaceOnUse"><stop offset="0"/><stop offset="0.5" stop-color="#ff1000" stop-opacity="0.4"/><stop offset="1"/></linearGradient><linearGradient id="Unbenannter_Verlauf_216-2" x1="-2543.03" y1="326.42" x2="-2447.16" y2="262.82" gradientTransform="translate(-2311 556.67) rotate(180)" xlink:href="#Unbenannter_Verlauf_216"/></defs><title>c_9</title><g id="_9" data-name="9"><rect class="cls-1" x="3" y="2.5" width="244" height="328" rx="10.5" ry="10.5"/><path id="_Polygon_" data-name="&lt;Polygon&gt;" class="cls-2" d="M154,182.73l-24.08,7.37a17,17,0,0,1-9.93,0l-24.09-7.37a17,17,0,0,1-12-16.23h0a17,17,0,0,1,12-16.23L120,142.9a17,17,0,0,1,9.93,0L154,150.27a17,17,0,0,1,12,16.23h0A17,17,0,0,1,154,182.73Z"/><text class="cls-3" transform="translate(17 96.6)">9</text><text class="cls-3" transform="translate(17 96.6)">9</text><path class="cls-4" d="M21.52,74.6H41.24q0,5.52.15,7A3.72,3.72,0,0,0,42.58,84a4,4,0,0,0,2.86,1A3.45,3.45,0,0,0,47.93,84a3.6,3.6,0,0,0,1.1-2.4q.12-1.45.12-5.9V63.13a10,10,0,0,1-4.39,4.76,15.13,15.13,0,0,1-7.28,1.59,16.21,16.21,0,0,1-9.57-2.93,12.73,12.73,0,0,1-5.27-7,43.47,43.47,0,0,1-1.12-11.08v-6.3a85.75,85.75,0,0,1,.65-12.35,16.16,16.16,0,0,1,3.4-7.5,17.65,17.65,0,0,1,7.57-5.34A30.47,30.47,0,0,1,44.37,15a32.87,32.87,0,0,1,13,2.2,17.67,17.67,0,0,1,7.86,6.32,18.56,18.56,0,0,1,3.22,8.67q.44,4.55.44,17.58v11q0,14.11-.39,18.88a18,18,0,0,1-3.4,9A18.27,18.27,0,0,1,57,95,30.88,30.88,0,0,1,45.1,97.16q-8.35,0-13.65-2.68a16.26,16.26,0,0,1-7.62-7.57A28.8,28.8,0,0,1,21.52,74.6ZM41.24,49.94c0,3.32.43,5.38,1.3,6.16a4,4,0,0,0,2.66,1.17,3.31,3.31,0,0,0,3-1.49q.94-1.48.95-5.84V35.64c0-3.49-.3-5.76-.9-6.84a3.17,3.17,0,0,0-3-1.61,4,4,0,0,0-2.64,1.25c-.91.83-1.37,3.06-1.37,6.71Z"/><text class="cls-5" transform="translate(18 95.6)">9</text><text class="cls-3" transform="translate(234 237.07) rotate(180)">9</text><text class="cls-3" transform="translate(234 237.07) rotate(180)">9</text><path class="cls-6" d="M229.48,259.06H209.76c0-3.68,0-6-.15-6.95a3.69,3.69,0,0,0-1.19-2.42,4.05,4.05,0,0,0-2.86-1,3.46,3.46,0,0,0-2.49.93A3.6,3.6,0,0,0,202,252q-.12,1.47-.12,5.91v12.6a9.94,9.94,0,0,1,4.39-4.76,15.13,15.13,0,0,1,7.28-1.59,16.21,16.21,0,0,1,9.57,2.93,12.71,12.71,0,0,1,5.27,7,43.61,43.61,0,0,1,1.12,11.09v6.29a85.81,85.81,0,0,1-.65,12.36,16.08,16.08,0,0,1-3.4,7.49,17.58,17.58,0,0,1-7.57,5.35,30.47,30.47,0,0,1-11.23,1.9,33.07,33.07,0,0,1-13-2.19,17.76,17.76,0,0,1-7.86-6.33,18.57,18.57,0,0,1-3.22-8.66q-.44-4.54-.44-17.58v-11q0-14.11.39-18.87a17.91,17.91,0,0,1,3.4-9,18.2,18.2,0,0,1,8.13-6.37,30.69,30.69,0,0,1,11.86-2.13q8.35,0,13.65,2.69a16.22,16.22,0,0,1,7.62,7.57A28.75,28.75,0,0,1,229.48,259.06Zm-19.72,24.66q0-5-1.3-6.15a4,4,0,0,0-2.66-1.17,3.29,3.29,0,0,0-3,1.49q-.95,1.49-1,5.83V298q0,5.22.9,6.83a3.16,3.16,0,0,0,3,1.62,4,4,0,0,0,2.64-1.25q1.37-1.25,1.37-6.71Z"/><text class="cls-5" transform="translate(233 238.07) rotate(180)">9</text></g></svg>