<svg xmlns="http://www.w3.org/2000/svg" xmlns:xlink="http://www.w3.org/1999/xlink" viewBox="0 0 250 333"><defs><style>.cls-1,.cls-3{stroke-miterlimit:10;stroke-width:2px;}.cls-1{fill:url(#Unbenannter_Verlauf_59);stroke:url(#Neues_Verlaufsfeld_1);}.cls-2{font-size:140px;fill:#00a99d;font-family:FranklinGothic-Demi, Franklin Gothic Demi;}.cls-3{stroke:url(#Neues_Verlaufsfeld_1-2);}</style><linearGradient id="Unbenannter_Verlauf_59" x1="1" y1="166.5" x2="249" y2="166.5" gradientUnits="userSpaceOnUse"><stop offset="0" stop-color="#00021b"/><stop offset="0.1" stop-color="#000112"/><stop offset="0.31" stop-color="#000005"/><stop offset="0.5"/><stop offset="0.74" stop-color="#020001"/><stop offset="0.86" stop-color="#0a0006"/><stop offset="0.96" stop-color="#17000e"/><stop offset="1" stop-color="#200013"/></linearGradient><linearGradient id="Neues_Verlaufsfeld_1" y1="166.5" x2="250" y2="166.5" gradientUnits="userSpaceOnUse"><stop offset="0" stop-color="#2a0020"/><stop offset="0.5" stop-color="#2affc6" stop-opacity="0.7"/><stop offset="1" stop-color="#2a000d"/></linearGradient><linearGradient id="Neues_Verlaufsfeld_1-2" x1="82.88" x2="167" xlink:href="#Neues_Verlaufsfeld_1"/></defs><title>card_sprite_4</title><g id="Ebene_3" data-name="Ebene 3"><rect class="cls-1" x="1" y="1.5" width="248" height="330" rx="8.5" ry="8.5"/></g><g id="Ebene_1" data-name="Ebene 1"><text class="cls-2" transform="translate(5.95 101.32)">4</text><text class="cls-2" transform="translate(244.05 233.12) rotate(180)">4</text><path id="_Polygon_" data-name="&lt;Polygon&gt;" class="cls-3" d="M154,182.73l-24.08,7.37a17,17,0,0,1-9.93,0l-24.09-7.37a17,17,0,0,1-12-16.23h0a17,17,0,0,1,12-16.23L120,142.9a17,17,0,0,1,9.93,0L154,150.27a17,17,0,0,1,12,16.23h0A17,17,0,0,1,154,182.73Z"/></g></svg>